<?xml version="1.0" encoding="UTF-8" standalone="no"?>
<!-- Created with Inkscape (http://www.inkscape.org/) -->

<svg
   xmlns:dc="http://purl.org/dc/elements/1.1/"
   xmlns:cc="http://creativecommons.org/ns#"
   xmlns:rdf="http://www.w3.org/1999/02/22-rdf-syntax-ns#"
   xmlns:svg="http://www.w3.org/2000/svg"
   xmlns="http://www.w3.org/2000/svg"
   xmlns:sodipodi="http://sodipodi.sourceforge.net/DTD/sodipodi-0.dtd"
   xmlns:inkscape="http://www.inkscape.org/namespaces/inkscape"
   id="svg11270"
   version="1.1"
   inkscape:version="0.48.2 r9819"
   width="743.75"
   height="1052.5"
   xml:space="preserve"
   sodipodi:docname="diploma.pdf"><metadata
     id="metadata11276"><rdf:RDF><cc:Work
         rdf:about=""><dc:format>image/svg+xml</dc:format><dc:type
           rdf:resource="http://purl.org/dc/dcmitype/StillImage" /><dc:title></dc:title></cc:Work></rdf:RDF></metadata><defs
     id="defs11274"><clipPath
       clipPathUnits="userSpaceOnUse"
       id="clipPath11286"><path
         d="M 0,0 595,0 595,842 0,842 0,0 z"
         id="path11288" /></clipPath></defs><sodipodi:namedview
     pagecolor="#ffffff"
     bordercolor="#666666"
     borderopacity="1"
     objecttolerance="10"
     gridtolerance="10"
     guidetolerance="10"
     inkscape:pageopacity="0"
     inkscape:pageshadow="2"
     inkscape:window-width="1171"
     inkscape:window-height="1011"
     id="namedview11272"
     showgrid="false"
     inkscape:zoom="1.2684253"
     inkscape:cx="348.22943"
     inkscape:cy="746.88966"
     inkscape:window-x="0"
     inkscape:window-y="0"
     inkscape:window-maximized="0"
     inkscape:current-layer="g11278" /><g
     id="g11278"
     inkscape:groupmode="layer"
     inkscape:label="diploma"
     transform="matrix(1.25,0,0,-1.25,0,1052.5)"><g
       id="g11280" /><path
       d="m 222.9543,663.62 c 0,0.9904 -0.8029,1.7933 -1.7933,1.7933 -0.9904,0 -1.7933,-0.8029 -1.7933,-1.7933 0,-0.9904 0.8029,-1.7933 1.7933,-1.7933 0.9904,0 1.7933,0.8029 1.7933,1.7933"
       style="fill:#ffffff;fill-opacity:1;fill-rule:nonzero;stroke:none"
       id="path11298"
       inkscape:connector-curvature="0" /><path
       d="m 222.9543,663.62 c 0,0.9904 -0.8029,1.7933 -1.7933,1.7933 -0.9904,0 -1.7933,-0.8029 -1.7933,-1.7933 0,-0.9904 0.8029,-1.7933 1.7933,-1.7933 0.9904,0 1.7933,0.8029 1.7933,1.7933 z m 0,0 -0.1794,0 c 0,0.8914 -0.7225,1.6139 -1.6139,1.6139 -0.8914,0 -1.6139,-0.7225 -1.6139,-1.6139 0,-0.8914 0.7225,-1.6139 1.6139,-1.6139 0.8914,0 1.6139,0.7225 1.6139,1.6139"
       style="fill:#000000;fill-opacity:1;fill-rule:evenodd;stroke:none"
       id="path11300"
       inkscape:connector-curvature="0" /><path
       d="m 194.6073,677.793 c 0,0.9904 -0.8029,1.7933 -1.7933,1.7933 -0.9904,0 -1.7933,-0.8029 -1.7933,-1.7933 0,-0.9904 0.8029,-1.7933 1.7933,-1.7933 0.9904,0 1.7933,0.8029 1.7933,1.7933"
       style="fill:#ffffff;fill-opacity:1;fill-rule:nonzero;stroke:none"
       id="path11302"
       inkscape:connector-curvature="0" /><path
       d="m 194.6073,677.793 c 0,0.9904 -0.8029,1.7933 -1.7933,1.7933 -0.9904,0 -1.7933,-0.8029 -1.7933,-1.7933 0,-0.9904 0.8029,-1.7933 1.7933,-1.7933 0.9904,0 1.7933,0.8029 1.7933,1.7933 z m 0,0 -0.1794,0 c 0,0.8914 -0.7225,1.6139 -1.6139,1.6139 -0.8914,0 -1.6139,-0.7225 -1.6139,-1.6139 0,-0.8914 0.7225,-1.6139 1.6139,-1.6139 0.8914,0 1.6139,0.7225 1.6139,1.6139"
       style="fill:#000000;fill-opacity:1;fill-rule:evenodd;stroke:none"
       id="path11304"
       inkscape:connector-curvature="0" /><text
       transform="scale(1,-1)"
       id="text11306"
       x="226.3195"
       y="-668.5"><tspan
         style="font-size:10.90909958px;font-variant:normal;font-weight:bold;writing-mode:lr-tb;fill:#000000;fill-opacity:1;fill-rule:nonzero;stroke:none;font-family:Times;-inkscape-font-specification:Times-Bold"
         x="226.3195"
         y="-668.5"
         id="tspan11308">P</tspan></text>
<text
       transform="scale(1,-1)"
       id="text11310"
       x="197.0394"
       y="-683.5"><tspan
         style="font-size:10.90909958px;font-variant:normal;font-weight:bold;writing-mode:lr-tb;fill:#000000;fill-opacity:1;fill-rule:nonzero;stroke:none;font-family:Times;-inkscape-font-specification:Times-Bold"
         x="197.0394"
         y="-683.5"
         id="tspan11312">Q</tspan></text>
<path
       d="m 378.8593,677.793 c 0,0.9904 -0.8029,1.7933 -1.7933,1.7933 -0.9904,0 -1.7933,-0.8029 -1.7933,-1.7933 0,-0.9904 0.8029,-1.7933 1.7933,-1.7933 0.9904,0 1.7933,0.8029 1.7933,1.7933"
       style="fill:#ffffff;fill-opacity:1;fill-rule:nonzero;stroke:none"
       id="path11314"
       inkscape:connector-curvature="0" /><path
       d="m 378.8593,677.793 c 0,0.9904 -0.8029,1.7933 -1.7933,1.7933 -0.9904,0 -1.7933,-0.8029 -1.7933,-1.7933 0,-0.9904 0.8029,-1.7933 1.7933,-1.7933 0.9904,0 1.7933,0.8029 1.7933,1.7933 z m 0,0 -0.1794,0 c 0,0.8914 -0.7225,1.6139 -1.6139,1.6139 -0.8914,0 -1.6139,-0.7225 -1.6139,-1.6139 0,-0.8914 0.7225,-1.6139 1.6139,-1.6139 0.8914,0 1.6139,0.7225 1.6139,1.6139"
       style="fill:#000000;fill-opacity:1;fill-rule:evenodd;stroke:none"
       id="path11316"
       inkscape:connector-curvature="0" /><path
       d="m 421.3793,706.139 c 0,0.9904 -0.8029,1.7933 -1.7933,1.7933 -0.9904,0 -1.7933,-0.8029 -1.7933,-1.7933 0,-0.9904 0.8029,-1.7933 1.7933,-1.7933 0.9904,0 1.7933,0.8029 1.7933,1.7933"
       style="fill:#ffffff;fill-opacity:1;fill-rule:nonzero;stroke:none"
       id="path11318"
       inkscape:connector-curvature="0" /><path
       d="m 421.3793,706.139 c 0,0.9904 -0.8029,1.7933 -1.7933,1.7933 -0.9904,0 -1.7933,-0.8029 -1.7933,-1.7933 0,-0.9904 0.8029,-1.7933 1.7933,-1.7933 0.9904,0 1.7933,0.8029 1.7933,1.7933 z m 0,0 -0.1794,0 c 0,0.8914 -0.7225,1.6139 -1.6139,1.6139 -0.8914,0 -1.6139,-0.7225 -1.6139,-1.6139 0,-0.8914 0.7225,-1.6139 1.6139,-1.6139 0.8914,0 1.6139,0.7225 1.6139,1.6139"
       style="fill:#000000;fill-opacity:1;fill-rule:evenodd;stroke:none"
       id="path11320"
       inkscape:connector-curvature="0" /><text
       transform="scale(1,-1)"
       id="text11322"
       x="364.32001"
       y="-662.49951"><tspan
         style="font-size:10.90909958px;font-variant:normal;font-weight:normal;writing-mode:lr-tb;fill:#000000;fill-opacity:1;fill-rule:nonzero;stroke:none;font-family:rtxmi;-inkscape-font-specification:rtxmi"
         x="364.32001"
         y="-662.49951"
         id="tspan11324">µ</tspan></text>
<text
       transform="scale(1,-1)"
       id="text11326"
       x="370.2001"
       y="-662.49951"><tspan
         style="font-size:10.90909958px;font-variant:normal;font-weight:normal;writing-mode:lr-tb;fill:#000000;fill-opacity:1;fill-rule:nonzero;stroke:none;font-family:Times;-inkscape-font-specification:Times-Roman"
         x="370.2001"
         y="-662.49951"
         id="tspan11328">[</tspan></text>
<text
       transform="scale(1,-1)"
       id="text11330"
       x="373.80011"
       y="-662.49951"><tspan
         style="font-size:10.90909958px;font-variant:normal;font-weight:bold;writing-mode:lr-tb;fill:#000000;fill-opacity:1;fill-rule:nonzero;stroke:none;font-family:Times;-inkscape-font-specification:Times-Bold"
         x="373.80011"
         y="-662.49951"
         id="tspan11332">P</tspan></text>
<text
       transform="scale(1,-1)"
       id="text11334"
       x="380.51999"
       y="-662.49951"><tspan
         style="font-size:10.90909958px;font-variant:normal;font-weight:normal;writing-mode:lr-tb;fill:#000000;fill-opacity:1;fill-rule:nonzero;stroke:none;font-family:Times;-inkscape-font-specification:Times-Roman"
         x="380.51999"
         y="-662.49951"
         id="tspan11336">]</tspan></text>
<text
       transform="scale(1,-1)"
       id="text11338"
       x="420.12"
       y="-692.13928"><tspan
         style="font-size:10.90909958px;font-variant:normal;font-weight:normal;writing-mode:lr-tb;fill:#000000;fill-opacity:1;fill-rule:nonzero;stroke:none;font-family:rtxmi;-inkscape-font-specification:rtxmi"
         x="420.12"
         y="-692.13928"
         id="tspan11340">µ</tspan></text>
<text
       transform="scale(1,-1)"
       id="text11342"
       x="426.00009"
       y="-692.13928"><tspan
         style="font-size:10.90909958px;font-variant:normal;font-weight:normal;writing-mode:lr-tb;fill:#000000;fill-opacity:1;fill-rule:nonzero;stroke:none;font-family:Times;-inkscape-font-specification:Times-Roman"
         x="426.00009"
         y="-692.13928"
         id="tspan11344">[</tspan></text>
<text
       transform="scale(1,-1)"
       id="text11346"
       x="429.6001"
       y="-692.13928"><tspan
         style="font-size:10.90909958px;font-variant:normal;font-weight:bold;writing-mode:lr-tb;fill:#000000;fill-opacity:1;fill-rule:nonzero;stroke:none;font-family:Times;-inkscape-font-specification:Times-Bold"
         x="429.6001"
         y="-692.13928"
         id="tspan11348">Q</tspan></text>
<text
       transform="scale(1,-1)"
       id="text11350"
       x="438.12"
       y="-692.13928"><tspan
         style="font-size:10.90909958px;font-variant:normal;font-weight:normal;writing-mode:lr-tb;fill:#000000;fill-opacity:1;fill-rule:nonzero;stroke:none;font-family:Times;-inkscape-font-specification:Times-Roman"
         x="438.12"
         y="-692.13928"
         id="tspan11352">]</tspan></text>
<g
       id="g11354"
       transform="scale(0.1,0.1)"><path
         d="M 3700.55,6861.62 3734,6812.08"
         style="fill:none;stroke:#000000;stroke-width:7.97010994;stroke-linecap:butt;stroke-linejoin:miter;stroke-miterlimit:10;stroke-opacity:1;stroke-dasharray:none"
         id="path11356"
         inkscape:connector-curvature="0" /></g><g
       id="g11358"
       transform="scale(0.1,0.1)"><path
         d="m 4163.93,7102.43 -33.45,49.53"
         style="fill:none;stroke:#000000;stroke-width:7.97010994;stroke-linecap:butt;stroke-linejoin:miter;stroke-miterlimit:10;stroke-opacity:1;stroke-dasharray:none"
         id="path11360"
         inkscape:connector-curvature="0" /></g><g
       id="g11362"
       transform="scale(0.1,0.1)"><path
         d="m 3720.58,6839.08 423.32,285.88"
         style="fill:none;stroke:#000000;stroke-width:7.97010994;stroke-linecap:butt;stroke-linejoin:miter;stroke-miterlimit:10;stroke-opacity:1;stroke-dasharray:none"
         id="path11364"
         inkscape:connector-curvature="0" /></g><text
       transform="scale(1,-1)"
       id="text11366"
       x="374.16"
       y="-704.38"><tspan
         style="font-size:7.97010994px;font-variant:normal;font-weight:normal;writing-mode:lr-tb;fill:#000000;fill-opacity:1;fill-rule:nonzero;stroke:none;font-family:Times;-inkscape-font-specification:Times-Roman"
         x="374.16 381.23984 388.3197"
         y="-704.38"
         sodipodi:role="line"
         id="tspan11368">MMD</tspan></text>
<text
       transform="scale(1,-1)"
       id="text11370"
       x="289.0799"
       y="-699.09991"><tspan
         style="font-size:10.90909958px;font-variant:normal;font-weight:normal;writing-mode:lr-tb;fill:#000000;fill-opacity:1;fill-rule:nonzero;stroke:none;font-family:rtxmi;-inkscape-font-specification:rtxmi"
         x="289.0799"
         y="-699.09991"
         id="tspan11372">µ</tspan></text>
<path
       d="m 303.665,687.504 6.583,-2.17 -3.964,5.686 1.327,-3.722"
       style="fill:#000000;fill-opacity:1;fill-rule:nonzero;stroke:none"
       id="path11374"
       inkscape:connector-curvature="0" /><g
       id="g11376"
       transform="scale(0.1,0.1)"><path
         d="m 3076.11,6872.98 0.85,-0.56 c -46.45,30.81 -100.96,47.24 -156.69,47.24 -66.64,0 -131.16,-23.48 -182.21,-66.32"
         style="fill:none;stroke:#000000;stroke-width:7.97010994;stroke-linecap:butt;stroke-linejoin:miter;stroke-miterlimit:10;stroke-opacity:1;stroke-dasharray:none"
         id="path11378"
         inkscape:connector-curvature="0" /></g><path
       d="m 242.932,647.255 6.575,2.191 -6.575,2.192 3.288,-2.192"
       style="fill:#000000;fill-opacity:1;fill-rule:nonzero;stroke:none"
       id="path11380"
       inkscape:connector-curvature="0" /><g
       id="g11382"
       transform="scale(0.1,0.1)"><path
         d="m 1361.22,6494.46 1100.98,0"
         style="fill:none;stroke:#000000;stroke-width:7.97010994;stroke-linecap:butt;stroke-linejoin:miter;stroke-miterlimit:10;stroke-opacity:1;stroke-dasharray:none"
         id="path11384"
         inkscape:connector-curvature="0" /></g><path
       d="m 152.487,713.737 -2.192,6.575 -2.192,-6.575 2.192,3.288"
       style="fill:#000000;fill-opacity:1;fill-rule:nonzero;stroke:none"
       id="path11386"
       inkscape:connector-curvature="0" /><g
       id="g11388"
       transform="scale(0.1,0.1)"><path
         d="m 1502.95,6352.73 0,817.52"
         style="fill:none;stroke:#000000;stroke-width:7.97010994;stroke-linecap:butt;stroke-linejoin:miter;stroke-miterlimit:10;stroke-opacity:1;stroke-dasharray:none"
         id="path11390"
         inkscape:connector-curvature="0" /></g><path
       d="m 441.357,647.255 6.575,2.191 -6.575,2.192 3.288,-2.192"
       style="fill:#000000;fill-opacity:1;fill-rule:nonzero;stroke:none"
       id="path11392"
       inkscape:connector-curvature="0" /><g
       id="g11394"
       transform="scale(0.1,0.1)"><path
         d="m 3345.47,6494.46 1100.98,0"
         style="fill:none;stroke:#000000;stroke-width:7.97010994;stroke-linecap:butt;stroke-linejoin:miter;stroke-miterlimit:10;stroke-opacity:1;stroke-dasharray:none"
         id="path11396"
         inkscape:connector-curvature="0" /></g><path
       d="m 176.37,679.749 2.271,6.548 -5.746,-3.876 3.742,1.27"
       style="fill:#000000;fill-opacity:1;fill-rule:nonzero;stroke:none"
       id="path11398"
       inkscape:connector-curvature="0" /><g
       id="g11400"
       transform="scale(0.1,0.1)"><path
         d="m 1446.26,6420.77 320.11,416.14"
         style="fill:none;stroke:#000000;stroke-width:7.97010994;stroke-linecap:butt;stroke-linejoin:miter;stroke-miterlimit:10;stroke-opacity:1;stroke-dasharray:none"
         id="path11402"
         inkscape:connector-curvature="0" /></g><path
       d="m 350.912,713.737 -2.192,6.575 -2.192,-6.575 2.192,3.288"
       style="fill:#000000;fill-opacity:1;fill-rule:nonzero;stroke:none"
       id="path11404"
       inkscape:connector-curvature="0" /><g
       id="g11406"
       transform="scale(0.1,0.1)"><path
         d="m 3487.2,6352.73 0,817.52"
         style="fill:none;stroke:#000000;stroke-width:7.97010994;stroke-linecap:butt;stroke-linejoin:miter;stroke-miterlimit:10;stroke-opacity:1;stroke-dasharray:none"
         id="path11408"
         inkscape:connector-curvature="0" /></g><text
       transform="scale(1,-1)"
       id="text11494"
       x="442.91959"
       y="-561.81982"><tspan
         style="font-size:10.90909958px;font-variant:normal;font-weight:normal;writing-mode:lr-tb;fill:#000000;fill-opacity:1;fill-rule:nonzero;stroke:none;font-family:txex;-inkscape-font-specification:txex"
         x="442.91959"
         y="-561.81982"
         id="tspan11496"></tspan></text>
<text
       transform="scale(1,-1)"
       id="text11510"
       x="484.31961"
       y="-561.81982"><tspan
         style="font-size:10.90909958px;font-variant:normal;font-weight:normal;writing-mode:lr-tb;fill:#000000;fill-opacity:1;fill-rule:nonzero;stroke:none;font-family:txex;-inkscape-font-specification:txex"
         x="484.31961"
         y="-561.81982"
         id="tspan11512"></tspan></text>
<text
       transform="scale(1,-1)"
       id="text11694"
       x="309.95972"
       y="-343.05991"><tspan
         style="font-size:10.90909958px;font-variant:normal;font-weight:normal;writing-mode:lr-tb;fill:#000000;fill-opacity:1;fill-rule:nonzero;stroke:none;font-family:txsy;-inkscape-font-specification:txsy"
         x="309.95972"
         y="-343.05991"
         id="tspan11696"></tspan></text>
<text
       transform="scale(1,-1)"
       id="text11702"
       x="320.52011"
       y="-343.05991"><tspan
         style="font-size:10.90909958px;font-variant:normal;font-weight:normal;writing-mode:lr-tb;fill:#000000;fill-opacity:1;fill-rule:nonzero;stroke:none;font-family:txsy;-inkscape-font-specification:txsy"
         x="320.52011"
         y="-343.05991"
         id="tspan11704"></tspan></text>
<text
       transform="scale(1,-1)"
       id="text11906"
       x="315.59891"
       y="-154.6597"><tspan
         style="font-size:10.90909958px;font-variant:normal;font-weight:normal;writing-mode:lr-tb;fill:#000000;fill-opacity:1;fill-rule:nonzero;stroke:none;font-family:txsy;-inkscape-font-specification:txsy"
         x="315.59891"
         y="-154.6597"
         id="tspan11908"></tspan></text>
<text
       transform="scale(1,-1)"
       id="text11946"
       x="373.07901"
       y="-154.6597"><tspan
         style="font-size:10.90909958px;font-variant:normal;font-weight:normal;writing-mode:lr-tb;fill:#000000;fill-opacity:1;fill-rule:nonzero;stroke:none;font-family:txsy;-inkscape-font-specification:txsy"
         x="373.07901"
         y="-154.6597"
         id="tspan11948"></tspan></text>
</g></svg>